<?xml version="1.0" encoding="utf-8"?>
<!-- Generator: Adobe Illustrator 12.0.0, SVG Export Plug-In . SVG Version: 6.00 Build 51448)  -->
<!DOCTYPE svg PUBLIC "-//W3C//DTD SVG 1.1//EN" "http://www.w3.org/Graphics/SVG/1.1/DTD/svg11.dtd" [
	<!ENTITY ns_svg "http://www.w3.org/2000/svg">
	<!ENTITY ns_xlink "http://www.w3.org/1999/xlink">
]>
<svg  version="1.1" id="レイヤー_1" xmlns="&ns_svg;" xmlns:xlink="&ns_xlink;" width="568.126" height="70.417"
	 viewBox="0 0 568.126 70.417" overflow="visible" enable-background="new 0 0 568.126 70.417" xml:space="preserve">
<g>
	<path d="M257.018,13.032c0,0.208-0.053,0.416-0.104,0.674c-1.869,6.908-2.855,15.112-2.855,22.694
		c0,5.138,0.467,10.643,1.35,15.471c0.052,0.261,0.052,0.521,0.052,0.78c0,1.196-0.675,1.817-1.765,2.077
		c-0.208,0.052-0.416,0.052-0.572,0.052c-0.986,0-1.765-0.571-2.025-1.973c-0.985-4.777-1.454-10.386-1.454-16.2
		c0-8.102,0.986-16.514,2.96-23.835c0.313-1.089,1.144-1.558,2.077-1.558c0.208,0,0.364,0,0.571,0.053
		C256.289,11.422,257.018,12.044,257.018,13.032 M268.908,34.944c0,0.52-0.26,0.988-0.674,1.404
		c-2.183,2.078-3.014,4.049-3.014,6.022c0,3.222,2.806,4.882,10.073,4.882c4.468,0,9.243-0.47,12.776-1.247
		c0.206-0.053,0.414-0.053,0.622-0.053c1.04,0,1.818,0.675,2.026,1.713c0.052,0.208,0.052,0.364,0.052,0.572
		c0,1.038-0.624,2.026-1.767,2.232c-3.843,0.779-8.411,1.144-13.189,1.144c-9.555,0-14.645-2.7-14.645-9.244
		c0-3.167,1.299-6.126,3.949-8.62c0.57-0.52,1.193-0.779,1.763-0.779c0.469,0,0.937,0.21,1.353,0.571
		C268.702,34.01,268.908,34.478,268.908,34.944 M286.615,16.823c1.297,0,1.973,0.726,2.129,1.921v0.154
		c0,1.195-0.52,2.181-2.024,2.337c-4.361,0.519-10.594,0.78-16.255,0.78c-1.921,0-3.791-0.055-5.504-0.104
		c-1.609-0.052-2.18-1.091-2.18-2.286c0.05-1.141,0.778-2.179,2.13-2.179h0.103c1.66,0.05,3.53,0.102,5.451,0.102
		c5.505,0,11.529-0.26,15.734-0.726H286.615z"/>
	<path d="M253.123,55.046c-1.214,0-2.025-0.779-2.285-2.19c-0.954-4.619-1.46-10.239-1.46-16.25c0-8.311,1.054-16.799,2.969-23.903
		c0.32-1.116,1.17-1.753,2.334-1.753c0.212,0,0.396,0,0.633,0.058c1.204,0.18,1.968,0.958,1.968,2.023
		c0,0.2-0.037,0.387-0.082,0.601l-0.025,0.128c-1.814,6.7-2.852,14.946-2.852,22.642c0,5.202,0.479,10.679,1.346,15.425
		c0.056,0.28,0.056,0.558,0.056,0.826c0,1.237-0.661,2.022-1.969,2.335C253.519,55.046,253.291,55.046,253.123,55.046
		 M254.681,11.48c-0.536,0-1.482,0.179-1.824,1.362c-1.898,7.058-2.946,15.498-2.946,23.763c0,5.975,0.5,11.557,1.447,16.148
		c0.218,1.17,0.81,1.761,1.766,1.761c0.146,0,0.329,0,0.506-0.044c1.069-0.253,1.565-0.831,1.565-1.818c0-0.254,0-0.494-0.048-0.729
		c-0.874-4.776-1.354-10.289-1.354-15.523c0-7.74,1.044-16.038,2.865-22.764l0.021-0.114c0.04-0.191,0.072-0.346,0.072-0.492
		c0-0.795-0.576-1.357-1.54-1.503C255.011,11.48,254.881,11.48,254.681,11.48 M275.814,51.879c-10.171,0-14.91-3.022-14.91-9.509
		c0-3.285,1.395-6.333,4.031-8.814c1.085-0.989,2.397-1.155,3.474-0.214c0.512,0.509,0.764,1.045,0.764,1.602
		c0,0.554-0.252,1.089-0.752,1.589c-1.977,1.881-2.934,3.791-2.934,5.836c0,3.193,3.023,4.617,9.808,4.617
		c4.441,0,9.193-0.467,12.716-1.242c1.452-0.356,2.688,0.474,2.967,1.868c0.057,0.228,0.057,0.412,0.057,0.625
		c0,1.275-0.797,2.277-1.983,2.494C285.348,51.482,280.767,51.879,275.814,51.879 M266.883,33.237c-0.521,0-1.083,0.252-1.585,0.709
		c-2.526,2.377-3.861,5.291-3.861,8.424c0,6.124,4.568,8.977,14.378,8.977c4.918,0,9.461-0.394,13.137-1.138
		c1.073-0.196,1.552-1.131,1.552-1.971c0-0.2,0-0.33-0.044-0.507c-0.188-0.938-0.864-1.512-1.767-1.512c-0.197,0-0.384,0-0.56,0.042
		c-3.564,0.788-8.361,1.255-12.838,1.255c-7.15,0-10.339-1.587-10.339-5.146c0-2.2,1.012-4.233,3.093-6.214
		c0.392-0.395,0.594-0.804,0.594-1.211c0-0.416-0.196-0.814-0.596-1.214C267.679,33.413,267.272,33.237,266.883,33.237
		 M270.466,22.28c-1.861,0-3.669-0.049-5.512-0.104c-1.551-0.05-2.44-0.979-2.44-2.549c0.054-1.186,0.826-2.447,2.396-2.447h0.104
		c1.719,0.054,3.551,0.104,5.452,0.104c5.659,0,11.675-0.278,15.704-0.725l0.446-0.002c1.358,0,2.211,0.767,2.391,2.152l0.002,0.189
		c0,1.526-0.802,2.45-2.261,2.602C282.645,21.988,276.557,22.28,270.466,22.28 M265.006,17.711h-0.096
		c-1.229,0-1.82,0.967-1.864,1.927c0,0.88,0.334,1.954,1.924,2.007c1.837,0.055,3.643,0.104,5.496,0.104
		c6.071,0,12.135-0.292,16.222-0.778c1.189-0.124,1.791-0.82,1.791-2.074v-0.153c-0.146-1.104-0.758-1.658-1.862-1.658H286.2
		c-4.018,0.448-10.058,0.728-15.734,0.728C268.557,17.815,266.721,17.763,265.006,17.711"/>
	<path d="M302.153,36.71c0,5.349,0.622,10.749,1.607,15.162c0.055,0.313,0.106,0.676,0.106,0.937c0,1.142-0.572,1.763-1.612,2.022
		c-0.258,0.054-0.466,0.054-0.673,0.054c-1.145,0-1.87-0.727-2.13-1.975c-1.038-4.569-1.609-10.074-1.609-16.148
		c0-7.166,1.245-16.826,3.063-23.731c0.312-1.246,1.091-1.766,2.077-1.766c0.26,0,0.468,0,0.726,0.055
		c1.04,0.206,1.56,0.83,1.56,1.817c0,0.26-0.051,0.521-0.104,0.83C303.399,20.821,302.153,29.596,302.153,36.71 M338.501,50.626
		c-0.57,0-1.09-0.208-1.558-0.674c-1.922-1.921-3.946-3.689-5.919-4.88c0.051,0.258,0.051,0.57,0.051,0.778v0.673
		c0,5.039-3.946,7.738-10.333,7.738s-10.54-2.959-10.54-8.102c0-4.775,3.946-7.944,10.333-7.944c2.129,0,4.362,0.313,6.387,1.038
		c-0.156-1.452-0.312-2.907-0.415-4.308c-0.104-1.454-0.207-3.219-0.313-5.349c-3.012,0.156-6.022,0.261-8.932,0.261
		c-1.712,0-3.427-0.053-5.035-0.104c-1.299-0.104-1.818-0.988-1.818-2.129c0.053-1.141,0.676-1.87,1.717-1.87h0.205
		c1.972,0.104,4.152,0.158,6.49,0.158c2.284,0,4.725-0.054,7.219-0.158c-0.105-2.337-0.156-5.14-0.156-8.047
		c-2.494,0.156-4.882,0.208-7.166,0.208c-2.025,0-3.999-0.052-5.817-0.158c-1.245-0.102-1.868-0.882-1.868-1.921V15.68
		c0-1.092,0.678-1.87,1.765-1.87h0.209c1.557,0.053,3.271,0.104,5.036,0.104c2.13,0,4.362-0.052,6.596-0.104
		c4.31-0.104,8.568-0.52,12.358-0.985h0.313c0.882,0,1.608,0.466,1.712,1.557c0.053,0.156,0.053,0.311,0.053,0.466
		c0,0.986-0.469,1.662-1.508,1.818c-2.388,0.416-5.088,0.676-7.683,0.832c0,2.751,0.104,5.453,0.207,7.944
		c2.647-0.156,5.297-0.467,7.581-0.83h0.311c0.988,0,1.717,0.624,1.818,1.609v0.313c0,1.04-0.52,1.713-1.662,1.921
		c-2.388,0.364-5.037,0.673-7.945,0.881c0.104,2.026,0.156,3.843,0.313,5.557c0.156,1.713,0.365,3.791,0.57,5.764
		c3.116,1.454,6.233,3.635,8.777,6.126c0.52,0.468,0.779,1.092,0.779,1.713c0,0.521-0.209,0.988-0.625,1.456
		C339.593,50.418,339.073,50.626,338.501,50.626 M327.078,43.2c-2.13-0.881-4.414-1.349-6.596-1.349c-3.894,0-6.23,1.661-6.23,4.309
		c0,2.753,2.388,4.311,6.127,4.311c4.673,0,6.75-1.662,6.75-5.557C327.129,44.342,327.129,43.824,327.078,43.2"/>
	<path d="M301.582,55.151c-1.248,0-2.096-0.778-2.39-2.186c-1.055-4.646-1.615-10.251-1.615-16.204
		c0-7.136,1.263-16.923,3.073-23.799c0.315-1.263,1.143-1.963,2.333-1.963c0.264,0,0.494,0,0.78,0.06
		c1.157,0.23,1.77,0.948,1.77,2.078c0,0.252-0.041,0.49-0.09,0.769l-0.018,0.105c-1.856,7.212-3.009,15.902-3.009,22.7
		c0,5.115,0.57,10.479,1.604,15.104c0.075,0.443,0.11,0.764,0.11,0.994c0,1.214-0.608,1.98-1.811,2.28
		C302.023,55.151,301.797,55.151,301.582,55.151 M302.983,11.531c-0.948,0-1.56,0.525-1.819,1.563
		c-1.8,6.84-3.056,16.572-3.056,23.667c0,5.913,0.554,11.477,1.602,16.09c0.196,0.939,0.813,2.053,2.493,1.719
		c0.962-0.241,1.398-0.785,1.398-1.763c0-0.198-0.034-0.49-0.103-0.893c-1.038-4.648-1.611-10.053-1.611-15.206
		c0-6.84,1.157-15.58,3.02-22.809l0.016-0.086c0.043-0.255,0.08-0.473,0.08-0.679c0-0.868-0.439-1.377-1.346-1.557
		C303.423,11.531,303.239,11.531,302.983,11.531 M320.742,54.527c-6.664,0-10.806-3.205-10.806-8.367
		c0-4.987,4.161-8.21,10.599-8.21c2.154,0,4.247,0.316,6.079,0.918c-0.139-1.298-0.277-2.625-0.373-3.903
		c-0.1-1.419-0.199-3.085-0.301-5.088c-3.259,0.166-6.103,0.246-8.678,0.246c-1.759,0-3.581-0.056-5.043-0.104
		c-1.324-0.106-2.076-0.98-2.076-2.396c0.061-1.322,0.82-2.133,1.98-2.133h0.207c3.865,0.202,8.503,0.206,13.432,0.01
		c-0.092-2.148-0.141-4.731-0.145-7.512c-2.145,0.128-4.405,0.189-6.9,0.189c-2.078,0-4.04-0.052-5.833-0.155
		c-1.308-0.108-2.118-0.946-2.118-2.188V15.68c0-1.275,0.816-2.135,2.03-2.135h0.209c1.594,0.054,3.298,0.104,5.036,0.104
		c2.046,0,4.106-0.047,6.59-0.104c3.626-0.088,7.66-0.408,12.331-0.984l0.346-0.002c1.128,0,1.87,0.673,1.976,1.798
		c0.055,0.14,0.055,0.325,0.055,0.491c0,1.174-0.615,1.912-1.736,2.08c-2.099,0.368-4.607,0.645-7.454,0.82
		c0.006,2.543,0.097,5.05,0.194,7.414c2.982-0.188,5.599-0.543,7.287-0.812l0.352-0.004c1.129,0,1.967,0.742,2.082,1.848l0.002,0.34
		c0,1.204-0.65,1.959-1.881,2.183c-2.509,0.38-5.1,0.672-7.715,0.866c0.023,0.47,0.045,0.927,0.064,1.375
		c0.063,1.375,0.123,2.677,0.234,3.911c0.152,1.669,0.354,3.685,0.555,5.613c3.087,1.459,6.176,3.627,8.715,6.111
		c0.551,0.496,0.859,1.177,0.859,1.904c0,0.574-0.227,1.108-0.691,1.631c-0.443,0.5-1.033,0.765-1.705,0.765
		c-0.658,0-1.245-0.252-1.745-0.752c-2.014-2.014-3.792-3.512-5.417-4.561c0.002,0.1,0.002,0.192,0.002,0.271v0.673
		C331.341,51.61,327.479,54.527,320.742,54.527 M320.535,38.482c-6.115,0-10.067,3.013-10.067,7.678
		c0,4.909,3.841,7.836,10.274,7.836c6.398,0,10.067-2.723,10.067-7.472V45.85c0-0.196,0-0.494-0.045-0.729l-0.115-0.587l0.512,0.309
		c1.785,1.08,3.737,2.69,5.97,4.922c0.401,0.399,0.851,0.595,1.37,0.595c0.523,0,0.963-0.198,1.307-0.583
		c0.379-0.43,0.559-0.836,0.559-1.28c0-0.576-0.246-1.114-0.691-1.515c-2.542-2.491-5.634-4.649-8.711-6.084l-0.137-0.064
		l-0.016-0.149c-0.209-1.972-0.414-4.052-0.57-5.769c-0.114-1.244-0.173-2.549-0.235-3.931c-0.023-0.53-0.049-1.074-0.078-1.634
		l-0.014-0.26l0.26-0.018c2.688-0.192,5.354-0.49,7.925-0.879c0.977-0.181,1.436-0.706,1.436-1.66v-0.313
		c-0.088-0.817-0.684-1.343-1.553-1.343h-0.311c-1.71,0.276-4.451,0.646-7.567,0.83l-0.268,0.016l-0.012-0.27
		c-0.105-2.525-0.207-5.218-0.207-7.956v-0.25l0.25-0.016c2.931-0.175,5.504-0.452,7.651-0.826c0.869-0.132,1.289-0.64,1.289-1.558
		c0-0.142,0-0.266-0.039-0.382c-0.121-1.206-0.967-1.377-1.46-1.377h-0.313c-4.655,0.578-8.707,0.9-12.353,0.988
		c-2.485,0.058-4.552,0.102-6.602,0.102c-1.746,0-3.456-0.05-5.046-0.102h-0.199c-0.911,0-1.499,0.629-1.499,1.603v0.154
		c0,0.967,0.592,1.574,1.624,1.66c1.775,0.1,3.728,0.154,5.796,0.154c2.593,0,4.932-0.068,7.15-0.208l0.281-0.019v0.284
		c0,2.997,0.055,5.776,0.156,8.038l0.012,0.264l-0.266,0.013c-5.046,0.21-9.809,0.205-13.734,0h-0.193
		c-0.873,0-1.402,0.588-1.449,1.615c0,1.142,0.529,1.77,1.574,1.856c1.444,0.044,3.263,0.1,5.014,0.1
		c2.636,0,5.554-0.084,8.918-0.26l0.266-0.012l0.014,0.264c0.105,2.12,0.207,3.867,0.312,5.342c0.104,1.404,0.262,2.877,0.414,4.302
		l0.045,0.421l-0.398-0.145C324.966,38.833,322.789,38.482,320.535,38.482 M320.379,50.736c-4.003,0-6.393-1.711-6.393-4.577
		c0-2.822,2.489-4.575,6.496-4.575c2.219,0,4.536,0.477,6.697,1.37l0.15,0.063l0.012,0.161c0.053,0.635,0.053,1.171,0.053,1.736
		C327.395,48.941,325.231,50.736,320.379,50.736 M320.482,42.117c-3.735,0-5.965,1.511-5.965,4.043c0,2.533,2.19,4.044,5.861,4.044
		c4.546,0,6.484-1.582,6.484-5.291c0-0.525,0-0.99-0.037-1.53C324.771,42.554,322.582,42.117,320.482,42.117"/>
	<path d="M355.334,36.19c3.17-4.413,6.96-6.854,10.958-6.854c2.701,0,4.31,1.246,5.192,2.806c0.936,1.662,1.402,3.583,1.558,8.773
		c0.156,4.675,0.52,6.336,1.195,7.27c0.727,0.936,2.076,1.352,3.427,1.352c1.869,0,3.634-0.884,4.776-2.545
		c1.455-2.078,2.597-5.245,3.169-9.036c0.207-1.193,0.934-1.87,2.024-1.87c0.156,0,0.363,0,0.52,0.055
		c1.143,0.206,1.766,0.985,1.766,2.127c0,0.156,0,0.364-0.051,0.52c-0.676,4.88-2.287,8.774-4.417,11.425
		c-2.075,2.751-4.983,3.841-8.1,3.841c-2.804,0-4.984-0.778-6.334-2.39c-1.299-1.506-2.077-3.893-2.233-9.087
		c-0.104-3.999-0.26-5.762-0.883-7.322c-0.467-1.142-1.246-1.815-2.804-1.815c-3.271,0-6.803,2.387-9.398,6.386
		c-1.974,3.011-4.311,8.154-5.973,12.878c-0.467,1.143-1.09,1.661-1.972,1.661c-0.26,0-0.572-0.053-0.883-0.155
		c-0.988-0.26-1.559-0.985-1.559-1.974c0-0.364,0.051-0.727,0.207-1.091c4.622-12.928,9.919-27.105,14.748-39.255
		c0.363-0.986,1.09-1.506,1.973-1.506c0.312,0,0.624,0.053,0.935,0.156c0.936,0.259,1.402,0.936,1.402,1.818
		c0,0.309-0.051,0.725-0.207,1.089c-2.544,6.336-4.985,12.254-7.219,17.915c-0.674,1.662-1.453,3.479-2.181,4.724L355.334,36.19z"/>
	<path d="M347.755,54.63c-0.295,0-0.639-0.061-0.969-0.17c-1.082-0.283-1.738-1.115-1.738-2.224c0-0.447,0.074-0.839,0.229-1.197
		c4.915-13.749,10.153-27.693,14.746-39.25c0.391-1.06,1.199-1.673,2.219-1.673c0.337,0,0.681,0.059,1.019,0.17
		c1.002,0.278,1.584,1.034,1.584,2.07c0,0.25-0.029,0.734-0.23,1.196c-0.994,2.475-1.975,4.894-2.933,7.26
		c-1.504,3.707-2.924,7.208-4.282,10.646c-0.436,1.074-1.033,2.51-1.641,3.726c3.13-4.003,6.756-6.113,10.534-6.113
		c3.107,0,4.663,1.598,5.423,2.94c0.93,1.649,1.429,3.477,1.593,8.897c0.162,4.836,0.559,6.311,1.145,7.12
		c0.602,0.776,1.805,1.242,3.212,1.242c1.836,0,3.495-0.884,4.558-2.427c1.463-2.089,2.571-5.258,3.126-8.925
		c0.23-1.333,1.064-2.096,2.286-2.096c0.172,0,0.406,0,0.604,0.066c1.225,0.218,1.947,1.09,1.947,2.379c0,0.172,0,0.408-0.066,0.604
		c-0.643,4.685-2.188,8.68-4.458,11.507c-1.944,2.575-4.819,3.941-8.309,3.941c-2.958,0-5.154-0.836-6.537-2.483
		c-1.483-1.722-2.149-4.403-2.296-9.249c-0.1-3.823-0.24-5.675-0.863-7.234c-0.473-1.154-1.238-1.648-2.558-1.648
		c-3.198,0-6.629,2.344-9.176,6.267c-1.882,2.873-4.216,7.904-5.945,12.821C349.463,54.051,348.758,54.63,347.755,54.63
		 M362.241,10.649c-0.795,0-1.406,0.471-1.723,1.332c-4.593,11.556-9.829,25.495-14.748,39.255
		c-0.133,0.309-0.191,0.622-0.191,1.001c0,0.862,0.496,1.488,1.361,1.716c1.233,0.41,1.989,0.007,2.54-1.35
		c1.738-4.941,4.093-10.019,5.996-12.922c2.645-4.075,6.241-6.506,9.621-6.506c1.528,0,2.497,0.628,3.05,1.981
		c0.654,1.633,0.801,3.525,0.902,7.414c0.141,4.714,0.769,7.298,2.169,8.921c1.277,1.524,3.339,2.295,6.133,2.295
		c3.364,0,6.019-1.258,7.891-3.735c2.214-2.757,3.722-6.664,4.36-11.3c0.051-0.162,0.051-0.349,0.051-0.484
		c0-1.022-0.549-1.686-1.547-1.866c-0.152-0.05-0.338-0.05-0.473-0.05c-0.952,0-1.579,0.586-1.763,1.65
		c-0.564,3.74-1.707,6.991-3.214,9.143c-1.16,1.69-2.979,2.658-4.993,2.658c-1.593,0-2.919-0.53-3.636-1.456
		c-0.668-0.919-1.081-2.427-1.251-7.419c-0.16-5.313-0.639-7.083-1.523-8.656c-0.691-1.217-2.11-2.669-4.962-2.669
		c-3.86,0-7.573,2.333-10.743,6.744l-0.107,0.151l-0.872-0.247l0.174-0.299c0.767-1.311,1.601-3.305,2.163-4.688
		c1.357-3.441,2.778-6.944,4.282-10.651c0.959-2.364,1.938-4.781,2.937-7.264c0.17-0.396,0.188-0.826,0.188-0.992
		c0-0.802-0.418-1.342-1.207-1.563C362.809,10.694,362.521,10.649,362.241,10.649"/>
	<path d="M401.146,32.92c0.519-0.47,1.144-0.728,1.767-0.728c0.521,0,0.986,0.208,1.402,0.518c0.52,0.416,0.727,0.886,0.727,1.404
		c0,0.468-0.207,0.988-0.676,1.402c-2.336,2.181-3.737,4.414-3.737,6.542c0,2.492,1.401,3.999,4.206,4.934
		c2.491,0.83,5.814,1.246,10.28,1.246c6.232,0,11.684-0.78,15.577-1.662c0.313-0.052,0.572-0.104,0.883-0.104
		c1.039,0,1.768,0.569,2.027,1.661c0.051,0.261,0.104,0.521,0.104,0.729c0,1.141-0.779,1.919-2.078,2.284
		c-4.05,1.091-9.71,1.611-16.409,1.611c-5.505,0-9.917-0.676-13.034-1.872c-3.843-1.607-5.916-4.257-5.916-8.203
		C396.269,39.515,397.669,36.033,401.146,32.92 M422.281,18.536c-3.011,0.312-6.646,0.518-9.917,0.518
		c-4.206,0-8.465-0.102-11.581-0.416c-1.143-0.153-1.764-0.933-1.764-2.023V16.25c0.154-1.194,0.881-1.818,2.076-1.818h0.26
		c3.271,0.261,7.892,0.416,12.773,0.416c5.142,0,9.917-0.208,13.137-0.416h0.26c1.143,0,2.025,0.624,2.285,1.61
		c0.053,0.313,0.104,0.624,0.104,0.884c0,0.882-0.363,1.61-1.402,2.127c-3.843,1.976-8.152,4.519-12.099,6.648
		c-0.572,0.312-1.142,0.468-1.608,0.468c-0.572,0-1.092-0.26-1.455-0.728c-0.207-0.313-0.363-0.728-0.363-1.089
		c0-0.624,0.311-1.246,0.986-1.612c2.284-1.194,5.192-2.543,8.412-3.947L422.281,18.536z M427.006,25.234
		c0.572,0,0.936,0.155,1.352,0.569c1.609,1.612,3.478,4.104,4.466,5.817c0.154,0.312,0.363,0.675,0.363,1.349
		c0,0.78-0.729,1.456-1.715,1.456c-0.623,0-1.039-0.26-1.35-0.883c-1.091-1.921-2.649-4.049-4.102-5.661
		c-0.313-0.361-0.52-0.777-0.52-1.246C425.501,25.96,426.179,25.234,427.006,25.234 M432.718,21.911
		c0.572,0,0.936,0.208,1.401,0.624c1.352,1.297,3.323,3.999,4.259,5.661c0.156,0.31,0.313,0.725,0.313,1.297
		c0,0.624-0.623,1.454-1.61,1.454c-0.623,0-0.986-0.26-1.35-0.83c-1.141-1.976-2.493-3.999-3.896-5.504
		c-0.467-0.471-0.623-0.73-0.623-1.353C431.212,22.587,431.991,21.911,432.718,21.911"/>
	<path d="M415.219,53.023c-5.368,0-9.907-0.654-13.13-1.89c-4.041-1.691-6.086-4.534-6.086-8.451c0-2.514,0.859-6.283,4.966-9.96
		c1.009-0.907,2.337-1.095,3.505-0.224c0.564,0.452,0.834,0.976,0.834,1.616c0,0.588-0.279,1.172-0.766,1.599
		c-2.42,2.259-3.647,4.397-3.647,6.345c0,2.311,1.241,3.755,4.024,4.682c2.489,0.83,5.826,1.232,10.196,1.232
		c7.15,0,12.793-1.036,15.519-1.656l0.111-0.021c0.273-0.044,0.529-0.09,0.83-0.09c1.17,0,2.004,0.679,2.285,1.868
		c0.058,0.297,0.11,0.561,0.11,0.788c0,1.227-0.806,2.129-2.271,2.54C427.709,52.477,422.164,53.023,415.219,53.023 M402.915,32.456
		c-0.555,0-1.119,0.236-1.591,0.662c-3.96,3.547-4.792,7.158-4.792,9.564c0,3.734,1.884,6.338,5.754,7.959
		c3.155,1.209,7.629,1.849,12.933,1.849c6.898,0,12.396-0.54,16.341-1.601c0.855-0.24,1.881-0.786,1.881-2.028
		c0-0.172-0.047-0.412-0.092-0.643c-0.23-0.977-0.844-1.481-1.773-1.481c-0.256,0-0.48,0.04-0.74,0.082l-0.096,0.018
		c-2.737,0.62-8.423,1.666-15.624,1.666c-4.431,0-7.82-0.412-10.364-1.259c-2.994-0.998-4.388-2.645-4.388-5.186
		c0-2.104,1.286-4.367,3.821-6.736c0.379-0.334,0.592-0.774,0.592-1.208c0-0.474-0.199-0.854-0.627-1.196
		C403.735,32.61,403.329,32.456,402.915,32.456 M431.472,34.692c-0.732,0-1.236-0.328-1.587-1.03
		c-1.053-1.854-2.574-3.953-4.062-5.603c-0.391-0.453-0.588-0.932-0.588-1.423c0-0.786,0.76-1.668,1.771-1.668
		c0.639,0,1.072,0.183,1.539,0.65c1.541,1.54,3.435,4.009,4.509,5.871l0.039,0.08c0.152,0.302,0.359,0.713,0.359,1.401
		C433.452,33.919,432.563,34.692,431.472,34.692 M427.006,25.5c-0.687,0-1.239,0.622-1.239,1.136c0,0.362,0.152,0.724,0.455,1.072
		c1.509,1.673,3.054,3.809,4.131,5.705c0.268,0.536,0.59,0.748,1.119,0.748c0.799,0,1.449-0.534,1.449-1.19
		c0-0.563-0.16-0.881-0.303-1.164l-0.033-0.067c-1.045-1.81-2.903-4.233-4.415-5.747C427.801,25.624,427.506,25.5,427.006,25.5
		 M437.08,31.21c-0.686,0-1.143-0.273-1.574-0.952c-1.336-2.307-2.634-4.143-3.864-5.466c-0.488-0.49-0.695-0.813-0.695-1.532
		c0-0.813,0.879-1.616,1.771-1.616c0.67,0,1.102,0.265,1.577,0.692c1.402,1.345,3.396,4.097,4.313,5.727
		c0.152,0.304,0.348,0.765,0.348,1.429C438.956,30.304,438.185,31.21,437.08,31.21 M432.718,22.177c-0.592,0-1.24,0.566-1.24,1.083
		c0,0.538,0.115,0.732,0.545,1.164c1.266,1.358,2.587,3.226,3.938,5.559c0.326,0.511,0.621,0.697,1.119,0.697
		c0.833,0,1.345-0.691,1.345-1.187c0-0.55-0.162-0.938-0.283-1.179c-0.896-1.589-2.847-4.281-4.206-5.589
		C433.472,22.311,433.173,22.177,432.718,22.177 M414.805,26.437c-0.658,0-1.25-0.297-1.664-0.832
		c-0.268-0.398-0.42-0.862-0.42-1.251c0-0.774,0.422-1.466,1.125-1.846c2.019-1.052,4.603-2.273,7.691-3.633
		c-2.993,0.286-6.293,0.446-9.173,0.446c-4.94,0-8.846-0.141-11.608-0.418c-1.258-0.17-2.004-1.026-2.004-2.288V16.25
		c0.176-1.356,1.008-2.083,2.344-2.083h0.26c3.343,0.265,7.991,0.416,12.773,0.416c6.064,0,11.198-0.29,13.119-0.416h0.277
		c1.254,0,2.252,0.709,2.541,1.807c0.063,0.37,0.112,0.678,0.112,0.952c0,1.07-0.507,1.846-1.548,2.366
		c-2.271,1.166-4.745,2.555-7.135,3.899c-1.646,0.922-3.347,1.875-4.956,2.746C415.948,26.258,415.332,26.437,414.805,26.437
		 M422.453,18.25l0.273,0.686l-0.234,0.104c-3.409,1.484-6.235,2.807-8.396,3.935c-0.535,0.292-0.844,0.793-0.844,1.378
		c0,0.285,0.121,0.647,0.318,0.941c0.574,0.736,1.627,0.766,2.716,0.174c1.607-0.865,3.307-1.819,4.948-2.741
		c2.396-1.345,4.876-2.737,7.156-3.908c0.871-0.437,1.258-1.02,1.258-1.892c0-0.231-0.045-0.518-0.1-0.838
		c-0.223-0.849-1.002-1.389-2.023-1.389h-0.26c-1.911,0.124-7.057,0.416-13.137,0.416c-4.796,0-9.46-0.154-12.795-0.416h-0.238
		c-1.066,0-1.678,0.532-1.814,1.587l0.002,0.328c0,0.987,0.561,1.629,1.535,1.759c2.735,0.276,6.623,0.416,11.546,0.416
		c3.112,0,6.717-0.19,9.89-0.518L422.453,18.25z"/>
	<path d="M445.399,23.259h-1.038c-1.246-0.05-1.869-0.777-1.869-2.022v-0.156c0.051-1.145,0.674-1.921,1.972-1.921
		c2.805,0,6.284-0.052,9.658-0.26c0.572-2.44,1.092-4.881,1.507-7.32c0.207-1.144,0.883-1.662,1.973-1.662
		c0.156,0,0.313,0,0.467,0.05c1.194,0.106,1.87,0.881,1.87,1.818c0,0.104,0,0.26-0.053,0.416c-0.361,2.025-0.779,4.152-1.298,6.386
		c3.479-0.312,6.906-0.726,9.659-1.246c0.156-0.052,0.363-0.052,0.52-0.052c0.985,0,1.712,0.52,1.868,1.662
		c0.051,0.156,0.051,0.364,0.051,0.52c0,0.936-0.621,1.713-1.503,1.868c-3.324,0.574-7.426,1.04-11.632,1.352
		c-2.597,10.28-6.129,21.134-10.126,29.597c-0.467,0.937-1.195,1.402-1.975,1.402c-0.414,0-0.777-0.104-1.192-0.311
		c-0.729-0.363-1.143-1.04-1.143-1.872c0-0.361,0.104-0.83,0.311-1.296c3.792-7.841,7.322-17.709,9.763-27.212
		C450.539,23.106,447.788,23.259,445.399,23.259 M463.158,45.226c0,1.765,0.779,2.855,2.336,3.635
		c1.507,0.726,3.896,0.986,7.115,0.986c3.997,0,8.308-0.414,11.268-1.038c0.26-0.053,0.467-0.053,0.727-0.053
		c1.09,0,1.766,0.624,1.922,1.61c0.051,0.208,0.051,0.364,0.051,0.521c0,1.037-0.57,1.869-1.922,2.181
		c-3.063,0.726-7.32,1.09-11.734,1.09c-4.153,0-7.426-0.518-9.658-1.662c-2.96-1.505-4.155-3.739-4.155-7.01
		c0-2.335,1.195-5.141,3.17-6.958c0.466-0.416,0.933-0.622,1.401-0.622c0.414,0,0.777,0.156,1.143,0.362
		c0.52,0.31,0.83,0.936,0.83,1.505c0,0.416-0.156,0.832-0.52,1.195C463.781,42.319,463.158,43.668,463.158,45.226 M482.476,24.872
		c1.297,0.05,2.024,0.986,2.024,2.181c0,1.192-0.778,2.026-1.974,2.026h-0.207c-1.352-0.054-3.167-0.054-4.622-0.054
		c-3.687,0-8.567,0.416-12.098,1.092c-0.156,0.05-0.313,0.05-0.469,0.05c-1.09,0-1.922-0.672-2.025-1.816
		c-0.053-0.155-0.053-0.26-0.053-0.416c0-0.936,0.572-1.765,1.662-1.973c3.843-0.726,8.983-1.246,13.242-1.246
		C479.307,24.715,480.864,24.767,482.476,24.872"/>
	<path d="M472.92,54.424c-4.356,0-7.555-0.553-9.779-1.691c-2.974-1.513-4.3-3.749-4.3-7.248c0-2.485,1.309-5.36,3.256-7.151
		c0.517-0.463,1.048-0.694,1.581-0.694c0.504,0,0.926,0.202,1.273,0.397c0.58,0.347,0.964,1.045,0.964,1.736
		c0,0.514-0.206,0.994-0.597,1.383c-1.293,1.292-1.896,2.585-1.896,4.069c0,1.616,0.656,2.629,2.191,3.397
		c1.354,0.653,3.579,0.96,6.996,0.96c3.897,0,8.194-0.398,11.214-1.034c0.288-0.057,0.517-0.057,0.78-0.057
		c1.186,0,2.002,0.687,2.184,1.833c0.055,0.219,0.055,0.4,0.055,0.561c0,1.257-0.756,2.125-2.129,2.439
		C481.728,54.033,477.537,54.424,472.92,54.424 M463.678,38.171c-0.4,0-0.813,0.186-1.227,0.554
		c-1.839,1.698-3.079,4.413-3.079,6.76c0,3.273,1.236,5.365,4.011,6.776c2.117,1.084,5.325,1.632,9.537,1.632
		c4.578,0,8.724-0.384,11.674-1.084c1.139-0.262,1.717-0.91,1.717-1.923c0-0.15,0-0.28-0.043-0.456
		c-0.146-0.914-0.734-1.408-1.664-1.408c-0.256,0-0.441,0-0.676,0.046c-3.048,0.645-7.386,1.043-11.318,1.043
		c-3.548,0-5.778-0.311-7.23-1.011c-1.697-0.85-2.486-2.082-2.486-3.875c0-1.633,0.652-3.045,2.051-4.445
		c0.293-0.292,0.441-0.632,0.441-1.008c0-0.504-0.287-1.03-0.701-1.276C464.389,38.329,464.057,38.171,463.678,38.171
		 M445.45,53.956c-0.438,0-0.842-0.104-1.312-0.339c-0.818-0.409-1.289-1.178-1.289-2.107c0-0.422,0.119-0.92,0.334-1.406
		c3.71-7.671,7.223-17.427,9.659-26.825c-0.527,0.022-1.057,0.046-1.585,0.07c-1.988,0.088-4.044,0.176-5.858,0.176h-1.038
		c-1.381-0.056-2.135-0.868-2.135-2.289V21.08c0.063-1.394,0.877-2.187,2.237-2.187c3.535,0,6.712-0.084,9.445-0.248
		c0.615-2.639,1.094-4.968,1.458-7.112c0.227-1.25,0.979-1.881,2.234-1.881c0.166,0,0.355,0,0.549,0.064
		c1.204,0.1,2.054,0.936,2.054,2.069c0,0.114,0,0.305-0.066,0.5c-0.396,2.222-0.785,4.151-1.209,6.006
		c3.7-0.34,6.817-0.748,9.27-1.209c0.162-0.056,0.396-0.056,0.568-0.056c1.19,0,1.968,0.688,2.132,1.891
		c0.055,0.148,0.055,0.383,0.055,0.555c0,1.059-0.727,1.955-1.726,2.131c-3.219,0.554-7.178,1.016-11.466,1.338
		c-2.853,11.252-6.436,21.708-10.097,29.461C447.171,53.391,446.364,53.956,445.45,53.956 M453.534,22.722l-0.088,0.346
		c-2.448,9.533-6.014,19.468-9.782,27.261c-0.178,0.403-0.283,0.838-0.283,1.182c0,0.731,0.354,1.311,0.995,1.631
		c0.396,0.2,0.719,0.284,1.074,0.284c0.717,0,1.334-0.446,1.736-1.256c3.665-7.76,7.256-18.256,10.106-29.544l0.045-0.186
		l0.193-0.014c4.345-0.322,8.356-0.79,11.606-1.348c0.755-0.134,1.282-0.794,1.282-1.607c0-0.134,0-0.32-0.037-0.437
		c-0.174-1.231-0.974-1.479-1.616-1.479c-0.135,0-0.32,0-0.436,0.04c-2.583,0.489-5.843,0.91-9.72,1.257l-0.365,0.032l0.084-0.358
		c0.454-1.958,0.866-3.983,1.294-6.372c0.049-0.152,0.049-0.278,0.049-0.37c0-0.855-0.639-1.465-1.628-1.553
		c-0.174-0.048-0.299-0.048-0.443-0.048c-0.988,0-1.533,0.458-1.711,1.441c-0.375,2.204-0.87,4.603-1.511,7.334l-0.045,0.192
		l-0.197,0.014c-2.788,0.173-6.043,0.261-9.674,0.261c-1.349,0-1.673,0.905-1.706,1.667v0.144c0,1.124,0.543,1.715,1.614,1.759
		h1.027c1.803,0,3.853-0.09,5.837-0.178c0.647-0.028,1.298-0.056,1.942-0.082L453.534,22.722z M465.131,30.433
		c-1.258,0-2.178-0.828-2.289-2.06c-0.055-0.136-0.055-0.275-0.055-0.438c0-1.14,0.736-2.017,1.877-2.236
		c4.081-0.771,9.175-1.251,13.293-1.251c1.371,0,2.937,0.057,4.532,0.158c1.363,0.054,2.276,1.038,2.276,2.445
		c0,1.35-0.921,2.292-2.239,2.292h-0.207c-1.357-0.055-3.167-0.055-4.622-0.055c-3.81,0-8.651,0.438-12.047,1.088
		C465.486,30.433,465.297,30.433,465.131,30.433 M477.957,24.98c-4.026,0-9.206,0.486-13.193,1.242
		c-0.891,0.17-1.445,0.826-1.445,1.713c0,0.148,0,0.216,0.039,0.332c0.1,1.03,0.775,1.633,1.773,1.633c0.145,0,0.27,0,0.387-0.038
		c3.458-0.664,8.339-1.104,12.18-1.104c1.459,0,3.276,0,4.632,0.052h0.197c1.039,0,1.708-0.692,1.708-1.759
		c0-1.12-0.694-1.874-1.769-1.916h-0.008C480.872,25.034,479.316,24.98,477.957,24.98"/>
	<path d="M524.753,21.807c0.313-0.052,0.572-0.102,0.832-0.102c1.037,0,1.712,0.516,2.024,1.555c0.051,0.26,0.104,0.521,0.104,0.78
		c0,0.933-0.572,1.713-1.765,2.023c-5.401,1.352-12.774,3.739-18.278,6.232c-6.75,3.066-10.282,6.958-10.282,10.749
		c0,4.517,3.323,6.802,14.332,6.802c5.088,0,10.8-0.569,14.748-1.401c0.207-0.053,0.413-0.053,0.622-0.053
		c1.143,0,1.922,0.675,2.078,1.87c0.051,0.206,0.051,0.362,0.051,0.572c0,1.089-0.727,1.971-1.973,2.232
		c-3.999,0.884-9.659,1.246-15.733,1.246c-12.724,0.054-18.591-3.478-18.591-11.32c0-5.245,4.362-10.333,11.839-13.969
		c-1.557-4.672-2.805-10.072-3.79-15.317c-0.051-0.158-0.051-0.313-0.051-0.469c0-1.141,0.882-1.817,1.868-2.025
		c0.207-0.052,0.363-0.052,0.57-0.052c1.039,0,1.92,0.571,2.077,1.765c0.883,4.934,1.975,9.969,3.479,14.332
		C514.057,25.078,520.131,23.001,524.753,21.807 M524.13,10.226c0.57,0,0.936,0.156,1.35,0.572c1.61,1.56,3.532,4.051,4.519,5.764
		c0.155,0.313,0.362,0.674,0.362,1.35c0,0.779-0.726,1.456-1.712,1.456c-0.627,0-1.039-0.261-1.352-0.885
		c-1.089-1.869-2.7-3.999-4.153-5.606c-0.312-0.366-0.519-0.78-0.519-1.248C522.625,10.956,523.298,10.226,524.13,10.226
		 M530.31,7.423c0.57,0,0.934,0.208,1.402,0.624c1.35,1.297,3.323,3.999,4.257,5.661c0.156,0.312,0.313,0.725,0.313,1.297
		c0,0.624-0.623,1.456-1.611,1.456c-0.623,0-0.987-0.26-1.349-0.832c-1.143-1.974-2.492-3.999-3.896-5.504
		c-0.467-0.469-0.623-0.729-0.623-1.35C528.803,8.099,529.582,7.423,530.31,7.423"/>
	<path d="M511.235,54.577c-7.807,0-12.991-1.381-15.846-4.224c-1.839-1.832-2.733-4.239-2.733-7.36
		c0-5.274,4.288-10.406,11.78-14.104c-1.363-4.137-2.617-9.226-3.728-15.134c-0.055-0.161-0.055-0.35-0.055-0.516
		c0-1.362,1.073-2.074,2.079-2.284c0.229-0.06,0.412-0.06,0.625-0.06c1.283,0,2.179,0.766,2.341,1.998
		c1.047,5.85,2.123,10.316,3.374,14.01c5.022-2.111,10.978-4.157,15.611-5.352l0.137-0.024c0.275-0.048,0.514-0.088,0.764-0.088
		c1.147,0,1.933,0.604,2.278,1.746c0.063,0.312,0.115,0.58,0.115,0.855c0,1.124-0.717,1.956-1.964,2.282
		c-4.647,1.162-12.212,3.487-18.237,6.218c-6.434,2.922-10.124,6.751-10.124,10.508c0,3.923,2.392,6.535,14.066,6.535
		c4.9,0,10.669-0.549,14.693-1.396c0.23-0.056,0.456-0.056,0.677-0.056c1.295,0,2.17,0.783,2.342,2.097
		c0.053,0.212,0.053,0.396,0.053,0.608c0,1.237-0.857,2.215-2.184,2.491c-3.708,0.818-9.169,1.251-15.788,1.251H511.235z
		 M503.358,11.428c-0.199,0-0.33,0-0.504,0.046c-0.814,0.17-1.669,0.722-1.669,1.765c0,0.146,0,0.269,0.037,0.386
		c1.134,6.021,2.407,11.165,3.79,15.316l0.074,0.22l-0.211,0.103c-7.428,3.613-11.688,8.618-11.688,13.729
		c0,2.974,0.844,5.257,2.577,6.982c2.749,2.742,7.813,4.074,15.471,4.074h0.275c6.584,0,12.004-0.428,15.679-1.242
		c1.09-0.226,1.764-0.982,1.764-1.971c0-0.2,0-0.334-0.043-0.511c-0.143-1.067-0.803-1.666-1.82-1.666c-0.197,0-0.385,0-0.56,0.044
		c-4.065,0.856-9.875,1.41-14.811,1.41c-10.505,0-14.598-1.981-14.598-7.065c0-4.033,3.708-7.936,10.438-10.991
		c6.057-2.746,13.656-5.081,18.323-6.249c1.007-0.262,1.563-0.892,1.563-1.768c0-0.226-0.045-0.456-0.096-0.701
		c-0.273-0.922-0.853-1.368-1.767-1.368c-0.205,0-0.422,0.036-0.674,0.08l-0.102,0.016c-4.694,1.213-10.741,3.295-15.791,5.437
		l-0.262,0.111l-0.092-0.27c-1.302-3.773-2.411-8.337-3.49-14.37C505.048,12.001,504.368,11.428,503.358,11.428 M528.648,19.633
		c-0.732,0-1.236-0.328-1.59-1.03c-1.003-1.721-2.581-3.855-4.112-5.548c-0.39-0.458-0.587-0.936-0.587-1.426
		c0-0.787,0.757-1.667,1.771-1.667c0.639,0,1.072,0.183,1.537,0.65c1.558,1.507,3.519,4.01,4.561,5.818l0.035,0.069
		c0.162,0.318,0.363,0.717,0.363,1.412C530.626,18.861,529.74,19.633,528.648,19.633 M524.13,10.492
		c-0.688,0-1.239,0.622-1.239,1.137c0,0.364,0.147,0.717,0.454,1.076c1.549,1.713,3.152,3.879,4.181,5.647
		c0.271,0.538,0.594,0.75,1.123,0.75c0.799,0,1.446-0.534,1.446-1.19c0-0.569-0.161-0.889-0.304-1.171
		c-1.043-1.818-2.967-4.269-4.497-5.75C524.923,10.618,524.63,10.492,524.13,10.492 M534.67,16.726
		c-0.688,0-1.142-0.278-1.573-0.956c-1.342-2.316-2.641-4.153-3.864-5.464c-0.488-0.49-0.695-0.813-0.695-1.532
		c0-0.816,0.879-1.618,1.772-1.618c0.666,0,1.084,0.254,1.578,0.69c1.406,1.353,3.399,4.104,4.313,5.728
		c0.148,0.307,0.346,0.77,0.346,1.429C536.547,15.818,535.775,16.726,534.67,16.726 M530.31,7.688c-0.591,0-1.241,0.567-1.241,1.086
		c0,0.538,0.115,0.731,0.545,1.162c1.259,1.349,2.581,3.217,3.938,5.558c0.325,0.514,0.62,0.7,1.118,0.7
		c0.834,0,1.346-0.694,1.346-1.19c0-0.539-0.152-0.916-0.285-1.179c-0.889-1.583-2.837-4.272-4.202-5.588
		C531.06,7.822,530.761,7.688,530.31,7.688"/>
	<path d="M565.938,12.72c0,0.624-0.257,1.246-0.829,1.765c-5.817,5.504-13.501,11.27-19.993,15.422
		c-1.192,0.778-1.452,1.298-1.452,2.024c0,0.73,0.416,1.196,1.817,2.077c6.438,4.157,15.369,10.907,21.445,16.568
		c0.676,0.622,0.934,1.347,0.934,2.023s-0.258,1.3-0.623,1.714c-0.467,0.571-1.09,0.881-1.765,0.881
		c-0.623,0-1.246-0.258-1.818-0.829c-6.127-5.971-14.227-12.307-21.809-17.5c-2.388-1.609-3.167-2.959-3.167-4.88
		c0-2.078,0.934-3.583,3.374-5.192c6.492-4.155,14.281-10.281,19.681-15.528c0.52-0.466,1.091-0.726,1.714-0.726
		c0.572,0,1.143,0.208,1.715,0.624C565.682,11.578,565.938,12.148,565.938,12.72"/>
	<path d="M565.473,55.46c-0.719,0-1.412-0.314-2.006-0.908c-5.613-5.47-13.549-11.838-21.771-17.466
		c-2.36-1.593-3.282-3.024-3.282-5.101c0-2.211,1.012-3.778,3.493-5.413c6.57-4.207,14.279-10.29,19.642-15.498
		c1.153-1.033,2.497-1.051,3.772-0.128c0.563,0.454,0.884,1.099,0.884,1.774c0,0.738-0.316,1.418-0.917,1.961
		c-5.384,5.094-12.872,10.871-20.028,15.45c-1.124,0.733-1.329,1.181-1.329,1.799c0,0.545,0.244,0.942,1.692,1.854
		c7.037,4.541,15.869,11.364,21.486,16.597c0.84,0.776,1.018,1.633,1.018,2.217c0,0.704-0.252,1.395-0.689,1.89
		C566.927,55.113,566.228,55.46,565.473,55.46 M563.447,10.805c-0.533,0-1.05,0.22-1.536,0.658
		c-5.378,5.224-13.12,11.333-19.716,15.551c-2.308,1.524-3.251,2.963-3.251,4.971c0,1.897,0.826,3.161,3.052,4.661
		c8.246,5.647,16.207,12.035,21.844,17.53c0.502,0.499,1.051,0.753,1.633,0.753c0.593,0,1.146-0.278,1.56-0.783
		c0.355-0.401,0.563-0.978,0.563-1.546c0-0.478-0.146-1.181-0.848-1.83c-5.598-5.212-14.4-12.014-21.41-16.538
		c-1.312-0.826-1.938-1.383-1.938-2.301c0-0.9,0.412-1.488,1.573-2.248c7.131-4.561,14.59-10.315,19.956-15.392
		c0.49-0.446,0.746-0.986,0.746-1.572c0-0.522-0.24-1.001-0.678-1.352C564.477,10.992,563.967,10.805,563.447,10.805"/>
	<line fill="none" stroke="#000000" stroke-width="2.7033" stroke-miterlimit="10" x1="0" y1="1.352" x2="225.756" y2="1.352"/>
	<line fill="none" stroke="#000000" stroke-width="2.7033" stroke-miterlimit="10" x1="0" y1="69.065" x2="225.756" y2="69.065"/>
	<path d="M56.152,14.929l-0.006-0.006l-5.479,3.154l0.007,0.013c-0.719,0.439-0.971,1.366-0.549,2.095L61.044,39.1l3.26,5.643
		l10.919,18.915c0.422,0.729,1.355,0.972,2.085,0.571l0.004,0.007l5.481-3.163l-0.007-0.007c0.712-0.432,0.962-1.357,0.54-2.09
		L72.407,40.063l-3.259-5.644L58.229,15.507C57.81,14.774,56.877,14.53,56.152,14.929"/>
	<path d="M45.638,11.139l-0.002-0.008l-6.322-0.009v0.015c-0.842,0.021-1.521,0.698-1.521,1.542l-0.002,21.838l0.002,6.517
		l-0.002,21.84c0,0.844,0.685,1.521,1.519,1.54v0.006h6.328l-0.002-0.006c0.834-0.019,1.512-0.698,1.514-1.54V41.035l-0.002-6.521
		V12.678C47.149,11.835,46.466,11.156,45.638,11.139"/>
	<path d="M20.687,11.139l-0.002-0.008l-6.322-0.009v0.015c-0.842,0.021-1.523,0.698-1.523,1.542v21.838v6.517v21.84
		c0,0.844,0.685,1.521,1.519,1.54v0.006h6.328l-0.002-0.006c0.832-0.019,1.512-0.698,1.514-1.54V41.035l-0.002-6.521V12.678
		C22.198,11.835,21.515,11.156,20.687,11.139"/>
	<path d="M8.21,11.139l-0.002-0.008l-6.322-0.009v0.015c-0.842,0.021-1.523,0.698-1.521,1.542L0.363,34.516v6.517v21.84
		c0,0.844,0.685,1.521,1.519,1.54v0.006H8.21l-0.002-0.006c0.832-0.019,1.512-0.698,1.514-1.54V41.035L9.72,34.514V12.678
		C9.722,11.835,9.039,11.156,8.21,11.139"/>
	<path d="M33.162,11.139l-0.002-0.008l-6.322-0.009v0.015c-0.842,0.021-1.521,0.698-1.521,1.542l-0.002,21.838l0.002,6.517
		l-0.002,21.84c0,0.844,0.685,1.521,1.519,1.54v0.006h6.328l-0.002-0.006c0.834-0.019,1.512-0.698,1.514-1.54V41.035l-0.002-6.521
		V12.678C34.675,11.835,33.99,11.156,33.162,11.139"/>
	<path d="M97.5,16.377c-0.572,0-0.889-0.458-0.889-0.982c0-0.55,0.317-1.029,0.868-1.029h12.592c0.548,0,0.868,0.479,0.868,1.029
		c0,0.524-0.343,0.982-0.868,0.982h-5.189v14.994c0,0.618-0.479,0.935-1.095,0.935c-0.618,0-1.098-0.317-1.098-0.935V16.377H97.5z"
		/>
	<path d="M103.785,32.515c-0.781,0-1.305-0.459-1.305-1.144V16.584h-4.981c-0.635,0-1.097-0.5-1.097-1.189
		c0-0.717,0.452-1.236,1.076-1.236h12.592c0.624,0,1.076,0.519,1.076,1.236c0,0.677-0.462,1.189-1.076,1.189h-4.978v14.786
		C105.091,32.055,104.565,32.515,103.785,32.515 M97.477,14.573c-0.454,0-0.66,0.426-0.66,0.822c0,0.386,0.21,0.775,0.681,0.775
		h5.397v15.2c0,0.676,0.68,0.73,0.89,0.73c0.208,0,0.89-0.055,0.89-0.73v-15.2h5.394c0.431,0,0.66-0.399,0.66-0.775
		c0-0.396-0.206-0.822-0.66-0.822H97.477z"/>
	<path d="M112.582,31.667c-0.16,0.458-0.504,0.639-0.89,0.639c-0.162,0-0.297-0.021-0.459-0.065
		c-0.456-0.116-0.798-0.503-0.798-0.938c0-0.138,0.021-0.252,0.067-0.388l6.217-15.612c0.297-0.778,0.867-1.074,1.575-1.074
		c0.734,0,1.328,0.295,1.624,1.074l6.219,15.658c0.067,0.134,0.092,0.25,0.092,0.386c0,0.46-0.368,0.801-0.824,0.916
		c-0.138,0.044-0.273,0.068-0.412,0.068c-0.412,0-0.777-0.206-0.938-0.64l-1.806-4.73h-7.907L112.582,31.667z M121.563,25.041
		l-2.536-6.65c-0.252-0.664-0.503-1.395-0.709-2.173c-0.206,0.778-0.432,1.51-0.71,2.196l-2.581,6.628H121.563z"/>
	<path d="M124.992,32.54c-0.53,0-0.954-0.29-1.131-0.776l-1.753-4.597h-7.622l-1.708,4.573c-0.238,0.666-0.862,0.909-1.6,0.699
		c-0.55-0.138-0.952-0.617-0.952-1.137c0-0.154,0.024-0.29,0.08-0.456l6.221-15.62c0.306-0.798,0.901-1.204,1.767-1.204
		c0.889,0,1.517,0.416,1.82,1.206l6.216,15.656c0.072,0.143,0.106,0.29,0.106,0.464c0,0.521-0.395,0.967-0.982,1.116
		C125.298,32.514,125.144,32.54,124.992,32.54 M114.197,26.753h8.195l1.856,4.865c0.164,0.439,0.536,0.505,0.744,0.505
		c0.107,0,0.222-0.019,0.35-0.06c0.32-0.079,0.678-0.313,0.678-0.716c0-0.111-0.021-0.193-0.068-0.294l-6.227-15.675
		c-0.241-0.634-0.71-0.942-1.431-0.942c-0.686,0-1.138,0.309-1.38,0.942l-6.218,15.612c-0.038,0.113-0.055,0.204-0.055,0.312
		c0,0.332,0.271,0.645,0.643,0.738c0.543,0.154,0.941,0.02,1.101-0.44l0.002-0.004L114.197,26.753z M121.865,25.248h-7.143
		l2.693-6.912c0.248-0.62,0.472-1.308,0.702-2.171l0.202-0.757l0.199,0.757c0.177,0.666,0.406,1.372,0.702,2.151L121.865,25.248z
		 M115.331,24.834h5.93l-2.427-6.371c-0.2-0.524-0.37-1.013-0.511-1.484c-0.168,0.564-0.336,1.058-0.521,1.51L115.331,24.834z"/>
	<path d="M129.904,16.836c0-1.761,0.708-2.469,2.332-2.469h4.066c5.053,0,8.022,3.2,8.022,8.708c0,5.689-3.015,9.097-8.022,9.097
		h-4.066c-1.624,0-2.332-0.709-2.332-2.447V16.836z M132.075,29.407c0,0.525,0.273,0.778,0.731,0.778h3.384
		c3.703,0,5.872-2.632,5.872-7.089c0-4.364-2.031-6.764-5.805-6.764h-3.429c-0.434,0-0.754,0.274-0.754,0.756V29.407z"/>
	<path d="M136.303,32.379h-4.066c-1.757,0-2.54-0.817-2.54-2.652V16.835c0-1.849,0.782-2.675,2.54-2.675h4.066
		c5.153,0,8.23,3.333,8.23,8.916C144.533,28.902,141.456,32.379,136.303,32.379 M132.236,14.574c-1.53,0-2.124,0.634-2.124,2.261
		v12.891c0,1.609,0.594,2.239,2.124,2.239h4.066c4.893,0,7.814-3.324,7.814-8.889c0-5.405-2.847-8.502-7.814-8.502H132.236z
		 M136.189,30.391h-3.382c-0.59,0-0.939-0.367-0.939-0.983V17.087c0-0.576,0.386-0.962,0.962-0.962h3.429
		c3.877,0,6.013,2.475,6.013,6.97C142.271,27.665,139.996,30.391,136.189,30.391 M132.83,16.54c-0.342,0-0.546,0.206-0.546,0.548
		v12.321c0,0.394,0.16,0.57,0.523,0.57h3.382c3.601,0,5.667-2.51,5.667-6.883c0-4.289-1.936-6.556-5.597-6.556H132.83z"/>
	<path d="M164.094,23.282c0,5.623-3.062,9.255-7.952,9.255c-4.893,0-8-3.613-8-9.282c0-5.598,3.085-9.23,8-9.23
		C161.032,14.025,164.094,17.635,164.094,23.282 M150.403,23.282c0,4.411,2.239,7.268,5.738,7.268c3.563,0,5.69-2.813,5.69-7.405
		c0-4.319-2.218-7.154-5.69-7.154C152.599,15.99,150.403,18.869,150.403,23.282"/>
	<path d="M156.141,32.743c-4.987,0-8.208-3.723-8.208-9.488c0-5.733,3.221-9.437,8.208-9.437c4.957,0,8.162,3.713,8.162,9.463
		C164.303,29.03,161.098,32.743,156.141,32.743 M156.141,14.233c-4.733,0-7.792,3.541-7.792,9.022c0,5.597,2.985,9.074,7.792,9.074
		c4.777,0,7.746-3.467,7.746-9.047C163.887,17.7,160.918,14.233,156.141,14.233 M156.141,30.755c-3.611,0-5.946-2.933-5.946-7.474
		c0-4.556,2.335-7.5,5.946-7.5c3.583,0,5.899,2.889,5.899,7.362C162.04,27.838,159.779,30.755,156.141,30.755 M156.141,16.196
		c-3.411,0-5.53,2.715-5.53,7.086c0,4.287,2.171,7.06,5.53,7.06c3.433,0,5.483-2.69,5.483-7.197
		C161.624,18.923,159.472,16.196,156.141,16.196"/>
	<path d="M181.599,30.594c0.138,0.184,0.208,0.388,0.208,0.594c0,0.342-0.208,0.687-0.504,0.914c-0.208,0.162-0.435,0.23-0.687,0.23
		c-0.299,0-0.616-0.139-0.801-0.39l-6.469-8.594l-2.491,2.54v5.485c0,0.615-0.456,0.933-1.074,0.933
		c-0.639,0-1.095-0.318-1.095-0.933V15.167c0-0.641,0.456-0.938,1.095-0.938c0.618,0,1.074,0.297,1.074,0.938v7.975l8.274-8.637
		c0.184-0.206,0.458-0.297,0.71-0.297c0.273,0,0.547,0.091,0.755,0.271c0.25,0.208,0.386,0.552,0.386,0.87
		c0,0.229-0.067,0.458-0.228,0.62l-5.896,5.939L181.599,30.594z"/>
	<path d="M180.615,32.539c-0.381,0-0.753-0.182-0.967-0.473l-6.323-8.4l-2.261,2.306v5.4c0,0.696-0.504,1.142-1.282,1.142
		c-0.791,0-1.305-0.446-1.305-1.142V15.166c0-0.716,0.487-1.143,1.305-1.143c0.79,0,1.282,0.437,1.282,1.143v7.46l7.916-8.266
		c0.403-0.454,1.269-0.458,1.751-0.036c0.279,0.232,0.458,0.626,0.458,1.024c0,0.308-0.104,0.577-0.29,0.765l-5.767,5.812
		l6.633,8.544c0.161,0.216,0.248,0.464,0.248,0.718c0,0.392-0.219,0.798-0.584,1.078C181.193,32.449,180.927,32.539,180.615,32.539
		 M173.367,23.03l6.615,8.788c0.136,0.186,0.385,0.307,0.633,0.307c0.218,0,0.396-0.059,0.558-0.187
		c0.263-0.202,0.425-0.488,0.425-0.75c0-0.162-0.057-0.324-0.164-0.468l-6.854-8.828l0.13-0.13l5.896-5.94
		c0.107-0.11,0.168-0.278,0.168-0.474c0-0.274-0.122-0.553-0.313-0.708c-0.318-0.282-0.911-0.295-1.177,0.004l-8.636,9.015v-8.494
		c0-0.634-0.542-0.729-0.866-0.729c-0.405,0-0.889,0.128-0.889,0.729v16.206c0,0.656,0.621,0.729,0.889,0.729
		c0.26,0,0.866-0.072,0.866-0.729v-5.568l0.058-0.064L173.367,23.03z"/>
	<path d="M185.323,15.167c0-0.64,0.458-0.938,1.12-0.938c0.594,0,1.075,0.298,1.075,0.938v10.375c0,3.361,1.646,5.029,4.73,5.029
		c3.153,0,4.799-1.692,4.799-5.048V15.167c0-0.64,0.458-0.938,1.098-0.938c0.638,0,1.098,0.298,1.098,0.938v10.447
		c0,4.522-2.447,6.943-6.972,6.943c-4.409,0-6.948-2.353-6.948-6.943V15.167z"/>
	<path d="M192.271,32.766c-4.615,0-7.156-2.541-7.156-7.152V15.166c0-0.716,0.496-1.143,1.328-1.143c0.78,0,1.283,0.45,1.283,1.143
		v10.377c0,3.197,1.521,4.821,4.523,4.821c3.045,0,4.591-1.631,4.591-4.842V15.166c0-0.706,0.5-1.143,1.305-1.143
		c0.804,0,1.306,0.437,1.306,1.143v10.447C199.451,30.225,196.9,32.766,192.271,32.766 M186.443,14.437
		c-0.416,0-0.912,0.126-0.912,0.729v10.447c0,4.407,2.329,6.738,6.74,6.738c4.425,0,6.764-2.331,6.764-6.738V15.166
		c0-0.604-0.483-0.729-0.89-0.729c-0.407,0-0.889,0.126-0.889,0.729v10.355c0,3.439-1.732,5.256-5.007,5.256
		c-3.231,0-4.938-1.809-4.938-5.235V15.166C187.312,14.509,186.703,14.437,186.443,14.437"/>
	<path d="M105.682,45.985c3.567,0.751,5.508,1.963,5.508,5.279c0,2.947-2.261,5.167-6.352,5.167c-5.212,0-6.284-2.697-6.834-4.552
		c-0.024-0.111-0.046-0.204-0.046-0.295c0-0.502,0.388-0.846,0.868-0.96c0.138-0.023,0.251-0.046,0.387-0.046
		c0.434,0,0.87,0.204,1.008,0.687c0.412,1.531,1.166,3.247,4.5,3.247c2.608,0,4.229-1.26,4.229-3.225
		c0-1.872-1.03-2.696-3.726-3.245l-1.83-0.388c-3.427-0.71-4.982-2.011-4.982-5.006c0-2.4,1.783-4.731,6.08-4.731
		c4.112,0,5.53,2.196,6.034,3.841c0.045,0.112,0.068,0.229,0.068,0.345c0,0.478-0.388,0.821-0.844,0.911
		c-0.116,0.022-0.251,0.047-0.39,0.047c-0.411,0-0.821-0.183-1.006-0.662c-0.365-1.305-1.326-2.583-3.862-2.583
		c-2.651,0-3.861,1.323-3.861,2.833c0,1.645,0.799,2.49,3.359,2.995L105.682,45.985z"/>
	<path d="M104.838,56.636c-5.64,0-6.582-3.173-7.034-4.698l-0.016-0.07c-0.021-0.096-0.038-0.188-0.038-0.286
		c0-0.558,0.404-1.012,1.028-1.162c0.149-0.026,0.281-0.05,0.435-0.05c0.596,0,1.058,0.32,1.208,0.836
		c0.402,1.5,1.099,3.097,4.3,3.097c2.48,0,4.021-1.155,4.021-3.017c0-1.732-0.898-2.5-3.56-3.043l-1.83-0.387
		c-3.704-0.767-5.148-2.226-5.148-5.209c0-2.279,1.647-4.938,6.288-4.938c4.143,0,5.676,2.167,6.232,3.987
		c0.051,0.128,0.078,0.268,0.078,0.403c0,0.54-0.416,0.998-1.012,1.116c-0.124,0.026-0.274,0.05-0.429,0.05
		c-0.57,0-1.009-0.288-1.2-0.793c-0.465-1.653-1.664-2.452-3.669-2.452c-2.695,0-3.655,1.358-3.655,2.627
		c0,1.37,0.524,2.266,3.193,2.791l1.691,0.345c3.405,0.715,5.675,1.925,5.675,5.48C111.399,54.527,108.824,56.636,104.838,56.636
		 M99.214,50.784c-0.116,0-0.217,0.02-0.347,0.042c-0.334,0.082-0.7,0.322-0.7,0.756c0,0.058,0.012,0.12,0.03,0.202l0.012,0.054
		c0.45,1.521,1.299,4.385,6.63,4.385c3.733,0,6.145-1.946,6.145-4.96c0-3.287-2.046-4.379-5.343-5.075l-1.689-0.344
		c-2.572-0.506-3.527-1.372-3.527-3.197c0-1.401,1.068-3.042,4.071-3.042c2.185,0,3.553,0.921,4.063,2.734
		c0.17,0.442,0.578,0.511,0.807,0.511c0.12,0,0.244-0.021,0.348-0.042c0.328-0.063,0.677-0.313,0.677-0.71
		c0-0.086-0.016-0.176-0.054-0.27c-0.52-1.698-1.952-3.707-5.84-3.707c-4.329,0-5.872,2.337-5.872,4.524
		c0,2.773,1.305,4.077,4.816,4.803l1.83,0.388c2.835,0.576,3.892,1.511,3.892,3.449c0,2.085-1.742,3.43-4.438,3.43
		c-3.329,0-4.226-1.635-4.703-3.398C99.88,50.824,99.368,50.784,99.214,50.784"/>
	<path d="M113.84,44.179c0-0.618,0.434-0.916,1.05-0.916c0.618,0,1.053,0.298,1.053,0.916v7.313c0,1.966,0.801,3.059,2.49,3.059
		c1.213,0,2.195-0.567,2.974-1.644c0.548-0.775,0.775-1.485,0.775-2.375v-6.354c0-0.618,0.436-0.916,1.051-0.916
		c0.595,0,1.028,0.298,1.028,0.916v11.109c0,0.613-0.412,0.911-1.005,0.911c-0.616,0-1.049-0.273-1.049-0.844v-0.64
		c0-0.252,0.067-0.709,0.135-1.075c-0.708,1.599-2.033,2.765-4.319,2.765c-2.697,0-4.183-1.689-4.183-4.479V44.179z"/>
	<path d="M118.023,56.612c-2.75,0-4.391-1.752-4.391-4.687v-7.748c0-0.692,0.481-1.122,1.258-1.122c0.778,0,1.261,0.43,1.261,1.122
		v7.315c0,1.92,0.746,2.852,2.282,2.852c1.129,0,2.045-0.508,2.803-1.558c0.519-0.734,0.738-1.408,0.738-2.256v-6.354
		c0-0.692,0.482-1.122,1.259-1.122c0.763,0,1.236,0.43,1.236,1.122v11.109c0,0.691-0.465,1.119-1.213,1.119
		c-0.778,0-1.259-0.401-1.259-1.052v-0.64c0-0.013,0-0.024,0.002-0.038C121.103,55.948,119.748,56.612,118.023,56.612
		 M114.891,43.47c-0.384,0-0.842,0.124-0.842,0.708v7.748c0,2.715,1.447,4.272,3.975,4.272c1.963,0,3.354-0.888,4.129-2.641
		l0.394,0.122c-0.064,0.346-0.135,0.799-0.135,1.035v0.64c0,0.526,0.459,0.638,0.845,0.638c0.364,0,0.797-0.124,0.797-0.705V44.178
		c0-0.614-0.513-0.708-0.82-0.708c-0.386,0-0.844,0.124-0.844,0.708v6.354c0,0.94-0.244,1.686-0.816,2.496
		c-0.83,1.15-1.887,1.731-3.141,1.731c-1.23,0-2.698-0.565-2.698-3.265v-7.315C115.736,43.594,115.276,43.47,114.891,43.47"/>
	<path d="M129.584,60.107c0,0.572-0.387,0.893-1.005,0.893c-0.64,0-1.028-0.32-1.028-0.893V44.153c0-0.592,0.388-0.892,1.028-0.892
		c0.57,0,1.005,0.276,1.005,0.848v0.41c0,0.32-0.023,0.87-0.092,1.257c0.8-1.624,2.057-2.695,4.275-2.695
		c3.429,0,5.372,2.492,5.372,6.558c0,4.067-2.059,6.767-5.464,6.767c-2.125,0-3.429-1.053-4.205-2.653
		c0.09,0.434,0.114,0.915,0.114,1.327V60.107z M129.539,49.708c0,2.835,1.486,4.89,3.885,4.89c2.31,0,3.613-1.963,3.613-4.912
		c0-2.971-1.259-4.823-3.565-4.823C130.955,44.863,129.539,46.896,129.539,49.708"/>
	<path d="M128.579,61.207c-0.763,0-1.236-0.42-1.236-1.098V44.153c0-0.688,0.461-1.099,1.236-1.099c0.737,0,1.215,0.414,1.215,1.057
		v0.41c0,0.087-0.002,0.208-0.008,0.341c0.928-1.335,2.237-1.99,3.98-1.99c3.495,0,5.581,2.53,5.581,6.767
		c0,4.236-2.227,6.972-5.672,6.972c-1.681,0-2.985-0.642-3.889-1.914c0.004,0.124,0.008,0.25,0.008,0.382v5.029
		C129.794,60.787,129.329,61.207,128.579,61.207 M128.579,43.469c-0.544,0-0.82,0.23-0.82,0.685v15.956
		c0,0.565,0.446,0.684,0.82,0.684c0.3,0,0.8-0.09,0.8-0.684V55.08c0-0.5-0.038-0.931-0.112-1.283l0.389-0.132
		c0.828,1.703,2.142,2.533,4.02,2.533c3.243,0,5.256-2.511,5.256-6.558c0-4.035-1.881-6.353-5.165-6.353
		c-1.921,0-3.219,0.822-4.089,2.582l-0.389-0.128c0.062-0.35,0.09-0.866,0.09-1.219v-0.41
		C129.379,43.531,128.818,43.469,128.579,43.469 M133.425,54.806c-2.449,0-4.094-2.048-4.094-5.099c0-3.07,1.625-5.051,4.14-5.051
		c2.362,0,3.773,1.879,3.773,5.031C137.245,52.847,135.78,54.806,133.425,54.806 M133.471,45.071c-2.297,0-3.725,1.778-3.725,4.637
		c0,2.803,1.477,4.685,3.679,4.685c2.129,0,3.403-1.76,3.403-4.704C136.829,46.754,135.604,45.071,133.471,45.071"/>
	<path d="M143.843,60.107c0,0.572-0.385,0.893-1.003,0.893c-0.642,0-1.03-0.32-1.03-0.893V44.153c0-0.592,0.388-0.892,1.03-0.892
		c0.57,0,1.003,0.276,1.003,0.848v0.41c0,0.32-0.021,0.87-0.089,1.257c0.799-1.624,2.055-2.695,4.274-2.695
		c3.43,0,5.371,2.492,5.371,6.558c0,4.067-2.057,6.767-5.462,6.767c-2.127,0-3.429-1.053-4.207-2.653
		c0.092,0.434,0.114,0.915,0.114,1.327V60.107z M143.799,49.708c0,2.835,1.486,4.89,3.885,4.89c2.31,0,3.611-1.963,3.611-4.912
		c0-2.971-1.257-4.823-3.565-4.823C145.215,44.863,143.799,46.896,143.799,49.708"/>
	<path d="M142.841,61.207c-0.765,0-1.238-0.42-1.238-1.098V44.153c0-0.688,0.463-1.099,1.238-1.099c0.735,0,1.211,0.414,1.211,1.057
		v0.41c0,0.099-0.002,0.217-0.007,0.343c0.929-1.337,2.238-1.992,3.981-1.992c3.495,0,5.581,2.53,5.581,6.767
		c0,4.236-2.225,6.972-5.67,6.972c-1.682,0-2.987-0.642-3.892-1.914c0.005,0.122,0.007,0.248,0.007,0.382v5.029
		C144.052,60.787,143.588,61.207,142.841,61.207 M142.841,43.469c-0.547,0-0.822,0.23-0.822,0.685v15.956
		c0,0.565,0.446,0.684,0.822,0.684c0.298,0,0.796-0.09,0.796-0.684V55.08c0-0.514-0.036-0.933-0.11-1.283l0.389-0.132
		c0.828,1.703,2.144,2.533,4.021,2.533c3.241,0,5.254-2.511,5.254-6.558c0-4.035-1.881-6.353-5.165-6.353
		c-1.919,0-3.219,0.822-4.087,2.582l-0.391-0.128c0.06-0.342,0.088-0.86,0.088-1.219v-0.41
		C143.637,43.531,143.078,43.469,142.841,43.469 M147.685,54.806c-2.449,0-4.092-2.048-4.092-5.099c0-3.07,1.624-5.051,4.138-5.051
		c2.362,0,3.772,1.879,3.772,5.031C151.503,52.847,150.04,54.806,147.685,54.806 M147.731,45.071c-2.297,0-3.723,1.778-3.723,4.637
		c0,2.803,1.477,4.685,3.677,4.685c2.129,0,3.403-1.76,3.403-4.704C151.088,46.754,149.864,45.071,147.731,45.071"/>
	<path d="M167.657,49.708c0,3.978-2.191,6.721-5.758,6.721c-3.773,0-5.966-2.651-5.966-6.721c0-3.955,2.219-6.628,5.922-6.628
		C165.51,43.08,167.657,45.734,167.657,49.708 M158.036,49.779c0,2.901,1.371,4.89,3.727,4.89c2.491,0,3.793-1.942,3.793-4.981
		c0-2.881-1.302-4.848-3.633-4.848C159.453,44.839,158.036,46.737,158.036,49.779"/>
	<path d="M161.898,56.636c-3.807,0-6.173-2.653-6.173-6.928c0-4.151,2.406-6.834,6.129-6.834c3.707,0,6.013,2.62,6.013,6.834
		C167.867,53.919,165.523,56.636,161.898,56.636 M161.854,43.288c-3.522,0-5.713,2.461-5.713,6.42c0,4.017,2.206,6.514,5.757,6.514
		c3.373,0,5.553-2.557,5.553-6.514C167.451,45.75,165.306,43.288,161.854,43.288 M161.763,54.876c-2.39,0-3.935-2.001-3.935-5.099
		c0-3.221,1.53-5.145,4.095-5.145c2.369,0,3.841,1.935,3.841,5.053C165.764,52.937,164.268,54.876,161.763,54.876 M161.923,45.047
		c-2.304,0-3.679,1.769-3.679,4.73c0,2.892,1.347,4.685,3.519,4.685c2.279,0,3.585-1.741,3.585-4.776
		C165.348,46.827,164.036,45.047,161.923,45.047"/>
	<path d="M170.628,44.153c0-0.592,0.434-0.891,1.074-0.891c0.572,0,1.027,0.299,1.027,0.891v0.503c0,0.32-0.09,0.71-0.138,1.076
		c0.368-1.099,1.533-2.516,3.499-2.583c0.183-0.022,0.342-0.022,0.502-0.022c0.343,0,0.596,0.044,0.915,0.114
		c0.526,0.068,0.73,0.386,0.73,0.822c0,0.115-0.022,0.25-0.046,0.388c-0.093,0.48-0.41,0.891-0.893,0.891
		c-0.067,0-0.134,0-0.204-0.021c-0.319-0.07-0.614-0.138-1.097-0.138c-0.982,0.023-1.738,0.525-2.31,1.257
		c-0.594,0.731-0.938,1.578-0.96,2.538v6.308c0,0.616-0.455,0.912-1.027,0.912c-0.641,0-1.074-0.296-1.074-0.912V44.153z"/>
	<path d="M171.702,56.406c-0.802,0-1.282-0.418-1.282-1.119V44.153c0-0.678,0.49-1.098,1.282-1.098c0.74,0,1.236,0.442,1.236,1.098
		v0.467c0.648-0.899,1.729-1.629,3.145-1.679c0.174-0.02,0.342-0.02,0.51-0.02c0.354,0,0.619,0.042,0.959,0.115
		c0.57,0.074,0.895,0.44,0.895,1.026c0,0.134-0.026,0.28-0.048,0.424c-0.122,0.636-0.564,1.062-1.099,1.062
		c-0.077,0-0.166,0-0.266-0.03c-0.309-0.068-0.591-0.13-1.035-0.13c-0.826,0.021-1.55,0.418-2.146,1.179
		c-0.588,0.723-0.896,1.534-0.915,2.414v6.305C172.938,55.966,172.452,56.406,171.702,56.406 M171.702,43.47
		c-0.324,0-0.866,0.09-0.866,0.684v11.133c0,0.581,0.471,0.705,0.866,0.705c0.248,0,0.82-0.069,0.82-0.705v-6.309
		c0.023-0.977,0.361-1.875,1.007-2.669c0.672-0.86,1.504-1.31,2.464-1.334c0.496,0,0.797,0.066,1.119,0.136
		c0.084,0.024,0.13,0.024,0.188,0.024c0.406,0,0.624-0.391,0.688-0.721c0.02-0.122,0.042-0.244,0.042-0.351
		c0-0.378-0.168-0.565-0.548-0.616c-0.34-0.073-0.574-0.111-0.89-0.111c-0.146-0.009-0.304,0-0.478,0.02
		c-2.008,0.072-3.033,1.57-3.325,2.444l-0.404-0.095c0.017-0.121,0.038-0.25,0.059-0.376c0.04-0.243,0.078-0.476,0.078-0.672v-0.503
		C172.522,43.52,171.895,43.47,171.702,43.47"/>
	<path d="M181.988,40.637c0-0.597,0.388-0.916,1.026-0.916c0.596,0,1.028,0.319,1.028,0.916v2.765h2.926
		c0.571,0,0.846,0.364,0.846,0.912c0,0.528-0.296,0.894-0.846,0.894h-2.926v7.655c0,1.122,0.48,1.6,1.326,1.6
		c0.572,0,0.96-0.159,1.35-0.388c0.137-0.067,0.274-0.115,0.41-0.115c0.345,0,0.615,0.252,0.755,0.593
		c0.068,0.162,0.091,0.344,0.091,0.504c0,0.32-0.137,0.64-0.479,0.824c-0.663,0.317-1.281,0.504-2.265,0.504
		c-1.873,0-3.243-0.938-3.243-3.339v-7.838h-1.783c-0.55,0-0.8-0.366-0.8-0.894c0-0.526,0.25-0.912,0.822-0.912h1.761V40.637z"/>
	<path d="M185.231,56.591c-2.225,0-3.451-1.261-3.451-3.545v-7.633h-1.574c-0.633,0-1.009-0.412-1.009-1.099
		c0-0.692,0.395-1.12,1.03-1.12h1.553v-2.557c0-0.704,0.462-1.124,1.234-1.124c0.752,0,1.237,0.439,1.237,1.124v2.557h2.718
		c0.659,0,1.053,0.418,1.053,1.12c0,0.667-0.414,1.099-1.053,1.099h-2.718v7.45c0,1.234,0.598,1.393,1.118,1.393
		c0.523,0,0.876-0.145,1.243-0.36c0.196-0.098,0.362-0.145,0.517-0.145c0.402,0,0.765,0.278,0.947,0.724
		c0.067,0.164,0.105,0.364,0.105,0.582c0,0.438-0.214,0.806-0.588,1.006C186.932,56.383,186.277,56.591,185.231,56.591
		 M180.228,43.608c-0.408,0-0.614,0.238-0.614,0.706c0,0.454,0.198,0.685,0.593,0.685h1.99v8.047c0,2.587,1.652,3.131,3.035,3.131
		c0.973,0,1.552-0.187,2.176-0.484c0.296-0.158,0.359-0.434,0.359-0.636c0-0.162-0.026-0.309-0.074-0.424
		c-0.12-0.293-0.329-0.468-0.563-0.468c-0.088,0-0.192,0.032-0.316,0.095c-0.357,0.211-0.79,0.408-1.443,0.408
		c-0.7,0-1.533-0.312-1.533-1.805V45h3.133c0.553,0,0.637-0.432,0.637-0.685c0-0.468-0.215-0.706-0.637-0.706h-3.133v-2.971
		c0-0.444-0.309-0.71-0.822-0.71c-0.372,0-0.818,0.124-0.818,0.71v2.971H180.228z"/>
	<path d="M191.744,50.12c0.046,2.809,1.438,4.571,3.906,4.571c1.648,0,2.562-0.823,3.109-2.033c0.206-0.412,0.502-0.572,0.824-0.572
		c0.16,0,0.317,0.046,0.478,0.092c0.391,0.114,0.712,0.389,0.712,0.801c0,0.138-0.023,0.271-0.115,0.411
		c-0.732,1.508-2.059,3.018-5.027,3.018c-3.751,0-5.92-2.653-5.92-6.606c0-3.955,2.055-6.72,5.78-6.72
		c3.339,0,5.213,2.605,5.44,5.598v0.185c0,0.823-0.434,1.257-1.142,1.257H191.744z M198.508,48.451c0.252,0,0.344-0.092,0.344-0.296
		v-0.114c-0.273-1.624-1.257-3.293-3.36-3.293c-2.191,0-3.382,1.464-3.68,3.703H198.508z"/>
	<path d="M195.63,56.614c-3.781,0-6.128-2.611-6.128-6.814c0-4.271,2.295-6.926,5.99-6.926c3.597,0,5.429,2.91,5.646,5.791v0.2
		c0,0.918-0.504,1.463-1.35,1.463h-7.83c0.107,2.645,1.445,4.157,3.692,4.157c1.4,0,2.328-0.609,2.919-1.913
		c0.288-0.574,0.711-0.692,1.015-0.692c0.193,0,0.376,0.054,0.536,0.1c0.529,0.154,0.859,0.538,0.859,0.998
		c0,0.131-0.014,0.322-0.149,0.528C199.822,55.587,198.118,56.614,195.63,56.614 M195.492,43.287c-3.439,0-5.574,2.498-5.574,6.512
		c0,3.947,2.188,6.4,5.712,6.4c2.344,0,3.881-0.922,4.841-2.901c0.072-0.111,0.094-0.198,0.094-0.322c0-0.403-0.43-0.56-0.56-0.6
		c-0.14-0.04-0.286-0.084-0.42-0.084c-0.276,0-0.484,0.152-0.641,0.458c-0.651,1.444-1.73,2.147-3.293,2.147
		c-2.528,0-4.066-1.783-4.114-4.775l-0.004-0.209h8.256c0.771,0,0.934-0.572,0.934-1.05v-0.185
		C200.535,46.203,199.051,43.287,195.492,43.287 M198.509,48.658h-6.935l0.03-0.234c0.334-2.503,1.714-3.883,3.888-3.883
		c1.865,0,3.196,1.296,3.564,3.465l0.002,0.148C199.059,48.383,198.965,48.658,198.509,48.658 M192.053,48.244h6.456
		c0.096,0,0.124-0.019,0.126-0.021c0,0,0.008-0.018,0.008-0.069V48.04c-0.12-0.696-0.713-3.085-3.15-3.085
		C193.129,44.955,192.311,46.692,192.053,48.244"/>
	<path d="M203.741,44.153c0-0.592,0.434-0.891,1.074-0.891c0.57,0,1.026,0.299,1.026,0.891v0.503c0,0.32-0.092,0.71-0.138,1.076
		c0.368-1.099,1.532-2.516,3.497-2.583c0.184-0.022,0.344-0.022,0.504-0.022c0.342,0,0.594,0.044,0.914,0.114
		c0.528,0.068,0.732,0.386,0.732,0.822c0,0.115-0.022,0.25-0.044,0.388c-0.095,0.48-0.412,0.891-0.895,0.891
		c-0.068,0-0.136,0-0.204-0.021c-0.321-0.07-0.618-0.138-1.098-0.138c-0.981,0.023-1.737,0.525-2.31,1.257
		c-0.594,0.731-0.938,1.578-0.96,2.538v6.308c0,0.616-0.456,0.912-1.026,0.912c-0.641,0-1.074-0.296-1.074-0.912V44.153z"/>
	<path d="M204.814,56.406c-0.802,0-1.282-0.418-1.282-1.119V44.153c0-0.678,0.492-1.098,1.282-1.098
		c0.739,0,1.237,0.442,1.237,1.098v0.465c0.649-0.897,1.729-1.627,3.143-1.677c0.174-0.02,0.342-0.02,0.51-0.02
		c0.354,0,0.62,0.042,0.96,0.115c0.57,0.074,0.896,0.44,0.896,1.026c0,0.12-0.024,0.264-0.046,0.408
		c-0.128,0.654-0.568,1.078-1.101,1.078c-0.08,0-0.17,0-0.268-0.03c-0.324-0.07-0.592-0.13-1.036-0.13
		c-0.825,0.021-1.549,0.418-2.143,1.179c-0.591,0.725-0.898,1.536-0.916,2.414v6.305C206.052,55.966,205.565,56.406,204.814,56.406
		 M204.814,43.47c-0.324,0-0.866,0.09-0.866,0.684v11.133c0,0.581,0.472,0.705,0.866,0.705c0.248,0,0.821-0.069,0.821-0.705v-6.309
		c0.021-0.977,0.359-1.875,1.006-2.669c0.672-0.86,1.504-1.31,2.463-1.334c0.494,0,0.798,0.066,1.118,0.136
		c0.088,0.024,0.132,0.024,0.191,0.024c0.402,0,0.622-0.391,0.688-0.721c0.02-0.131,0.042-0.248,0.042-0.351
		c0-0.378-0.17-0.565-0.55-0.616c-0.34-0.073-0.574-0.111-0.891-0.111c-0.132-0.009-0.304,0-0.478,0.02
		c-2.007,0.072-3.033,1.57-3.325,2.444l-0.404-0.095c0.017-0.123,0.038-0.254,0.061-0.38c0.04-0.241,0.078-0.474,0.078-0.668v-0.503
		C205.636,43.52,205.007,43.47,204.814,43.47"/>
	<path d="M216.903,50.257c-2.812-0.547-3.978-1.532-3.978-3.703c0-2.079,1.782-3.497,4.731-3.497c2.537,0,4.161,1.076,4.733,2.744
		c0.021,0.092,0.044,0.184,0.044,0.274c0,0.435-0.389,0.729-0.8,0.847c-0.114,0.021-0.25,0.044-0.364,0.044
		c-0.412,0-0.824-0.182-0.938-0.616c-0.298-1.03-1.303-1.554-2.606-1.554c-1.85,0-2.72,0.754-2.72,1.713
		c0,1.05,0.437,1.508,2.355,1.919l1.416,0.296c2.971,0.618,4.161,1.488,4.161,3.888c0,2.19-1.876,3.816-5.075,3.816
		c-2.925,0-4.639-1.166-5.235-3.201c-0.021-0.111-0.044-0.204-0.044-0.298c0-0.458,0.389-0.778,0.822-0.868
		c0.116-0.021,0.23-0.044,0.32-0.044c0.434,0,0.846,0.183,0.981,0.616c0.412,1.326,1.35,1.989,3.155,1.989
		c1.829,0,3.017-0.801,3.017-1.967c0-1.12-0.596-1.736-2.675-2.148L216.903,50.257z"/>
	<path d="M217.863,56.636c-2.915,0-4.793-1.158-5.433-3.35l-0.016-0.069c-0.02-0.097-0.037-0.188-0.037-0.286
		c0-0.51,0.404-0.952,0.986-1.072c0.778-0.16,1.366,0.148,1.542,0.714c0.398,1.276,1.31,1.843,2.957,1.843
		c1.681,0,2.81-0.707,2.81-1.759c0-0.939-0.4-1.527-2.507-1.946l-1.303-0.252c-2.982-0.582-4.145-1.675-4.145-3.904
		c0-2.251,1.939-3.703,4.938-3.703c2.503,0,4.302,1.05,4.93,2.883c0.027,0.116,0.056,0.224,0.056,0.34
		c0,0.472-0.374,0.881-0.952,1.045c-0.134,0.028-0.284,0.053-0.422,0.053c-0.576,0-1.012-0.297-1.138-0.771
		c-0.256-0.885-1.133-1.4-2.405-1.4c-1.574,0-2.511,0.564-2.511,1.508c0,0.846,0.216,1.292,2.188,1.715l1.418,0.296
		c2.804,0.582,4.322,1.408,4.322,4.089C223.144,55.018,221.022,56.636,217.863,56.636 M213.727,52.225
		c-0.08,0-0.178,0.021-0.28,0.042c-0.325,0.067-0.653,0.298-0.653,0.664c0,0.056,0.012,0.122,0.027,0.202l0.013,0.054
		c0.588,2.007,2.281,3.035,5.03,3.035c2.955,0,4.865-1.418,4.865-3.611c0-2.185-0.932-3.045-3.993-3.681l-1.418-0.298
		c-1.929-0.414-2.519-0.91-2.519-2.122c0-0.93,0.77-1.921,2.927-1.921c1.47,0,2.493,0.619,2.805,1.701
		c0.114,0.434,0.595,0.468,0.738,0.468c0.104,0,0.224-0.022,0.328-0.042c0.28-0.08,0.63-0.301,0.63-0.642
		c0-0.063-0.018-0.142-0.04-0.224c-0.567-1.662-2.18-2.585-4.529-2.585c-2.747,0-4.522,1.292-4.522,3.289
		c0,2.007,1.032,2.958,3.807,3.499l1.305,0.252c2.07,0.41,2.843,1.046,2.843,2.351c0,1.3-1.296,2.173-3.226,2.173
		c-1.835,0-2.898-0.677-3.353-2.133C214.379,52.271,213.919,52.225,213.727,52.225"/>
</g>
</svg>
